<svg xmlns="http://www.w3.org/2000/svg" width="32" height="32" viewBox="0 0 32 32" fill="none">
  <circle cx="16" cy="16" r="16" fill="url(#paint0_linear_dark)" />
  <path d="M10 14V20C10 21.1046 10.8954 22 12 22C13.1046 22 14 21.1046 14 20V14C14 12.8954 13.1046 12 12 12C10.8954 12 10 12.8954 10 14Z" fill="white" />
  <path d="M18 14V20C18 21.1046 18.8954 22 20 22C21.1046 22 22 21.1046 22 20V14C22 12.8954 21.1046 12 20 12C18.8954 12 18 12.8954 18 14Z" fill="white" />
  <path d="M16 8C12.6863 8 10 10.6863 10 14H11C11 11.2386 13.2386 9 16 9C18.7614 9 21 11.2386 21 14H22C22 10.6863 19.3137 8 16 8Z" fill="white" />
  <defs>
    <linearGradient id="paint0_linear_dark" x1="0" y1="0" x2="32" y2="32" gradientUnits="userSpaceOnUse">
      <stop stop-color="#C084FC" />
      <stop offset="1" stop-color="#60A5FA" />
    </linearGradient>
  </defs>
</svg> 