<svg width="561" height="95" viewBox="0 0 561 95" fill="none" xmlns="http://www.w3.org/2000/svg">
<g clip-path="url(#clip0_139_62)">
<path d="M140.395 31.7746C141.064 34.3763 141.491 36.9595 141.677 39.5241C144.018 37.0338 146.639 35.1197 149.538 33.7816C152.474 32.4436 155.522 31.7746 158.681 31.7746C162.175 31.7746 165.093 32.6666 167.434 34.4507C168.847 35.5285 170.463 37.4055 172.285 40.0816C175.109 37.2197 177.953 35.1197 180.815 33.7816C183.677 32.4436 186.762 31.7746 190.07 31.7746C194.53 31.7746 198.154 33.0011 200.941 35.4542C203.766 37.8701 205.178 41.048 205.178 44.9878V63.8877L205.234 68.1248C205.234 70.6523 205.383 72.5107 205.68 73.7C205.977 74.8522 206.535 75.8186 207.353 76.5991C208.431 77.6027 210.363 78.3646 213.151 78.885V80H188.564V78.885C190.794 78.5876 192.374 78.1788 193.303 77.6584C194.27 77.1009 195.069 76.1717 195.701 74.8708C196.109 74.016 196.388 72.7337 196.537 71.0239C196.723 69.277 196.816 66.7868 196.816 63.5532V52.9046C196.816 48.7789 196.685 45.7683 196.425 43.8727C196.165 41.9772 195.663 40.3604 194.92 39.0223C193.173 35.863 190.163 34.2834 185.888 34.2834C181.279 34.2834 177.934 35.9931 175.853 39.4126C174.032 42.3488 173.121 46.9205 173.121 53.1276V63.8877L173.177 68.1248C173.177 70.6523 173.325 72.5107 173.623 73.7C173.92 74.8522 174.478 75.8186 175.295 76.5991C176.336 77.6027 178.269 78.3646 181.094 78.885V80H156.507V78.885C158.737 78.5876 160.317 78.1788 161.246 77.6584C162.212 77.1009 163.011 76.1717 163.643 74.8708C164.052 74.016 164.331 72.7337 164.479 71.0239C164.665 69.277 164.758 66.7868 164.758 63.5532V53.2391C164.758 48.8904 164.61 45.7125 164.312 43.7055C164.052 41.6612 163.532 40.0073 162.751 38.7436C161.933 37.4055 160.781 36.3648 159.295 35.6214C157.808 34.8409 156.135 34.4507 154.277 34.4507C152.158 34.4507 150.17 34.9524 148.311 35.956C146.453 36.9595 144.985 38.3161 143.907 40.0258C142.903 41.5497 142.179 43.3896 141.733 45.5453C141.324 47.6639 141.119 50.4143 141.119 53.7966V63.9992L141.175 68.1248C141.175 70.6523 141.324 72.5107 141.621 73.7C141.918 74.8522 142.495 75.8186 143.349 76.5991C144.39 77.6027 146.304 78.3646 149.092 78.885V80H124.505V78.885C126.735 78.5876 128.334 78.1788 129.3 77.6584C130.266 77.1009 131.047 76.1717 131.642 74.8708C132.05 74.016 132.329 72.7337 132.478 71.0239C132.664 69.277 132.757 66.7682 132.757 63.4974V49.7267C132.757 45.8984 132.664 43.2223 132.478 41.6984C132.292 40.1374 131.883 38.8736 131.251 37.9073C130.619 36.8666 129.857 36.1232 128.965 35.6772C128.073 35.194 126.791 34.8967 125.119 34.7852V33.6701L140.395 31.7746ZM223.023 49.6709C222.875 51.4922 222.8 52.8116 222.8 53.6293C222.8 56.8629 223.265 60.0222 224.194 63.1072C225.161 66.1921 226.462 68.7567 228.097 70.8009C229.769 72.8823 231.832 74.5177 234.285 75.7071C236.776 76.8965 239.377 77.4912 242.091 77.4912C244.098 77.4912 245.993 77.1567 247.777 76.4876C249.599 75.8186 251.104 74.8894 252.293 73.7C253.631 72.3992 254.783 70.3177 255.75 67.4558L256.865 67.8461C255.899 72.1947 253.817 75.4841 250.621 77.7142C247.461 79.9071 243.243 81.0035 237.965 81.0035C233.393 81.0035 229.472 80.2788 226.201 78.8292C222.931 77.3797 220.162 75.1496 217.894 72.139C214.735 67.939 213.155 62.7726 213.155 56.6399C213.155 48.2771 216.147 41.717 222.131 36.9595C226.48 33.5029 231.442 31.7746 237.017 31.7746C239.991 31.7746 242.741 32.3135 245.268 33.3914C247.796 34.4321 249.933 35.956 251.68 37.963C254.393 41.0851 255.75 44.9878 255.75 49.6709H223.023ZM247.443 47.4966C247.183 43.7798 246.495 40.9179 245.38 38.9108C244.376 37.0896 243.038 35.6586 241.366 34.6179C239.693 33.54 237.909 33.0011 236.014 33.0011C232.817 33.0011 230.011 34.3763 227.595 37.1267C225.216 39.8772 223.804 43.3338 223.358 47.4966H247.443ZM272.591 32.6108H286.808V34.7294H272.591V67.1771C272.591 71.0797 273.26 73.8673 274.598 75.5398C275.305 76.469 276.234 77.1938 277.386 77.7142C278.538 78.2345 279.783 78.4947 281.121 78.4947C282.794 78.4947 284.188 78.1602 285.303 77.4912C286.418 76.785 287.644 75.5213 288.982 73.7L289.819 74.4248C288.592 76.6549 286.864 78.3089 284.634 79.3867C282.441 80.4646 279.69 81.0035 276.383 81.0035C271.997 81.0035 268.8 80.1487 266.793 78.4389C265.715 77.5469 265.009 76.4876 264.675 75.2611C264.34 73.9974 264.173 71.7487 264.173 68.5151V34.7294H258.207V33.8374C260.623 33.0569 262.853 31.5516 264.898 29.3215C266.124 27.9463 267.109 26.5896 267.852 25.2516C268.596 23.8764 269.302 22.1109 269.971 19.9551L270.529 18.1153H272.591V32.6108ZM337.819 74.5921L338.767 75.1496C337.429 79.0522 334.362 81.0035 329.568 81.0035C326.929 81.0035 324.736 80.3531 322.989 79.0522C321.837 78.1974 320.647 76.7106 319.421 74.5921C316.931 76.8221 315.054 78.2903 313.79 78.9965C311.374 80.3345 308.568 81.0035 305.371 81.0035C301.283 81.0035 298.031 80.0186 295.615 78.0487C293.236 76.0788 292.047 73.4213 292.047 70.0762C292.047 66.9912 293.032 64.408 295.001 62.3266C296.117 61.1744 297.399 60.2638 298.848 59.5948C300.298 58.8886 302.398 58.1824 305.148 57.4762C308.382 56.6585 310.761 55.9709 312.285 55.4134C313.846 54.8559 315.147 54.1868 316.187 53.4063C317.377 52.5515 318.194 51.5479 318.64 50.3957C319.086 49.2435 319.309 47.6453 319.309 45.601C319.309 41.2524 318.492 38.0745 316.856 36.0675C316.113 35.1383 315.147 34.3949 313.957 33.8374C312.805 33.2799 311.597 33.0011 310.333 33.0011C308.809 33.0011 307.453 33.3914 306.263 34.1719C305.074 34.9524 304.182 36.0303 303.587 37.4055L302.193 40.6391C301.45 42.386 300.112 43.2595 298.179 43.2595C296.916 43.2595 295.856 42.8506 295.001 42.0329C294.147 41.1781 293.719 40.1188 293.719 38.8551C293.719 36.9595 295.057 35.3613 297.733 34.0604C299.183 33.3914 300.967 32.8524 303.086 32.4436C305.241 31.9976 307.341 31.7746 309.385 31.7746C311.69 31.7746 314.087 32.0719 316.577 32.6666C319.068 33.2613 321.149 34.0232 322.822 34.9524C325.238 36.3276 326.743 38.1117 327.338 40.3046C327.635 41.4196 327.784 43.2966 327.784 45.9356V66.5638C327.784 70.0576 327.932 72.4363 328.23 73.7C328.861 76.339 330.385 77.6584 332.801 77.6584C333.954 77.6584 334.846 77.454 335.477 77.0451C336.146 76.6363 336.927 75.8186 337.819 74.5921ZM319.421 52.6258C317.414 54.2983 315.202 55.7665 312.786 57.0302C310.073 58.4797 308.196 59.5762 307.155 60.3196C306.115 61.0629 305.167 61.955 304.312 62.9957C302.565 65.1514 301.692 67.6602 301.692 70.5222C301.692 72.9753 302.361 75.0009 303.699 76.5991C305.074 78.1974 306.802 78.9965 308.884 78.9965C310.705 78.9965 312.415 78.4389 314.013 77.3239C315.648 76.1717 316.875 74.6478 317.693 72.7522C318.845 70.262 319.421 66.6567 319.421 61.9364V52.6258ZM378.297 69.4629L379.412 69.8531C378.111 73.7929 376.123 76.6363 373.447 78.3832C370.771 80.1301 367.091 81.0035 362.408 81.0035C354.9 81.0035 349.009 78.7735 344.734 74.3133C340.572 69.9275 338.49 64.3895 338.49 57.6992C338.49 54.4284 339.066 51.1948 340.219 47.9984C341.371 44.8019 342.95 42.0701 344.957 39.8028C347.225 37.2011 349.994 35.2126 353.264 33.8374C356.572 32.4622 360.178 31.7746 364.08 31.7746C369.47 31.7746 373.688 32.9825 376.736 35.3984C378.594 36.8852 379.524 38.5205 379.524 40.3046C379.524 41.494 379.133 42.4975 378.353 43.3152C377.572 44.0957 376.625 44.486 375.51 44.486C373.094 44.486 371.31 42.7205 370.157 39.1896C369.637 37.5542 369.21 36.4391 368.875 35.8445C368.578 35.2498 368.132 34.7294 367.537 34.2834C366.385 33.4285 364.972 33.0011 363.3 33.0011C361.107 33.0011 359.081 33.6144 357.223 34.8409C355.587 35.9188 354.194 37.2754 353.041 38.9108C351.926 40.509 350.941 42.5347 350.087 44.9878C348.786 48.7417 348.135 52.4214 348.135 56.0267C348.135 59.3346 348.73 62.5682 349.919 65.7275C351.109 68.8868 352.726 71.5257 354.77 73.6443C357.966 76.9894 361.72 78.662 366.032 78.662C369.6 78.662 372.555 77.5283 374.896 75.2611C376.086 74.0717 377.219 72.139 378.297 69.4629ZM430.621 74.5921L431.569 75.1496C430.231 79.0522 427.165 81.0035 422.37 81.0035C419.731 81.0035 417.538 80.3531 415.791 79.0522C414.639 78.1974 413.45 76.7106 412.223 74.5921C409.733 76.8221 407.856 78.2903 406.592 78.9965C404.176 80.3345 401.37 81.0035 398.174 81.0035C394.085 81.0035 390.833 80.0186 388.417 78.0487C386.038 76.0788 384.849 73.4213 384.849 70.0762C384.849 66.9912 385.834 64.408 387.804 62.3266C388.919 61.1744 390.201 60.2638 391.651 59.5948C393.1 58.8886 395.2 58.1824 397.951 57.4762C401.184 56.6585 403.563 55.9709 405.087 55.4134C406.648 54.8559 407.949 54.1868 408.99 53.4063C410.179 52.5515 410.997 51.5479 411.443 50.3957C411.889 49.2435 412.112 47.6453 412.112 45.601C412.112 41.2524 411.294 38.0745 409.659 36.0675C408.915 35.1383 407.949 34.3949 406.76 33.8374C405.607 33.2799 404.399 33.0011 403.136 33.0011C401.612 33.0011 400.255 33.3914 399.066 34.1719C397.876 34.9524 396.984 36.0303 396.39 37.4055L394.996 40.6391C394.253 42.386 392.915 43.2595 390.982 43.2595C389.718 43.2595 388.659 42.8506 387.804 42.0329C386.949 41.1781 386.522 40.1188 386.522 38.8551C386.522 36.9595 387.86 35.3613 390.536 34.0604C391.985 33.3914 393.769 32.8524 395.888 32.4436C398.044 31.9976 400.144 31.7746 402.188 31.7746C404.492 31.7746 406.89 32.0719 409.38 32.6666C411.87 33.2613 413.952 34.0232 415.624 34.9524C418.04 36.3276 419.545 38.1117 420.14 40.3046C420.437 41.4196 420.586 43.2966 420.586 45.9356V66.5638C420.586 70.0576 420.735 72.4363 421.032 73.7C421.664 76.339 423.188 77.6584 425.604 77.6584C426.756 77.6584 427.648 77.454 428.28 77.0451C428.949 76.6363 429.729 75.8186 430.621 74.5921ZM412.223 52.6258C410.216 54.2983 408.005 55.7665 405.589 57.0302C402.876 58.4797 400.999 59.5762 399.958 60.3196C398.917 61.0629 397.969 61.955 397.115 62.9957C395.368 65.1514 394.494 67.6602 394.494 70.5222C394.494 72.9753 395.163 75.0009 396.501 76.5991C397.876 78.1974 399.605 78.9965 401.686 78.9965C403.507 78.9965 405.217 78.4389 406.815 77.3239C408.451 76.1717 409.677 74.6478 410.495 72.7522C411.647 70.262 412.223 66.6567 412.223 61.9364V52.6258ZM432.294 3.67558L448.295 1.66851V63.8877L448.351 68.1248C448.351 70.6523 448.499 72.5107 448.797 73.7C449.094 74.8522 449.67 75.8186 450.525 76.5991C451.566 77.6027 453.48 78.3646 456.267 78.885V80H431.681V78.885C433.911 78.5876 435.509 78.1788 436.475 77.6584C437.442 77.1009 438.222 76.1717 438.817 74.8708C439.226 74.016 439.505 72.7337 439.653 71.0239C439.839 69.277 439.932 66.7682 439.932 63.4974V19.7321C439.932 15.941 439.839 13.2649 439.653 11.7039C439.467 10.1428 439.059 8.87909 438.427 7.91272C437.795 6.87202 437.033 6.12866 436.141 5.68265C435.249 5.23663 433.967 4.95787 432.294 4.84637V3.67558ZM475.223 31.7746C475.892 34.3763 476.319 36.9595 476.505 39.5241C478.847 37.0338 481.467 35.1197 484.366 33.7816C487.303 32.4436 490.35 31.7746 493.51 31.7746C497.003 31.7746 499.921 32.6666 502.263 34.4507C503.675 35.5285 505.292 37.4055 507.113 40.0816C509.938 37.2197 512.781 35.1197 515.643 33.7816C518.505 32.4436 521.59 31.7746 524.898 31.7746C529.358 31.7746 532.982 33.0011 535.77 35.4542C538.594 37.8701 540.007 41.048 540.007 44.9878V63.8877L540.063 68.1248C540.063 70.6523 540.211 72.5107 540.509 73.7C540.806 74.8522 541.363 75.8186 542.181 76.5991C543.259 77.6027 545.192 78.3646 547.979 78.885V80H523.393V78.885C525.623 78.5876 527.202 78.1788 528.132 77.6584C529.098 77.1009 529.897 76.1717 530.529 74.8708C530.938 74.016 531.217 72.7337 531.365 71.0239C531.551 69.277 531.644 66.7868 531.644 63.5532V52.9046C531.644 48.7789 531.514 45.7683 531.254 43.8727C530.994 41.9772 530.492 40.3604 529.748 39.0223C528.002 35.863 524.991 34.2834 520.717 34.2834C516.108 34.2834 512.763 35.9931 510.681 39.4126C508.86 42.3488 507.949 46.9205 507.949 53.1276V63.8877L508.005 68.1248C508.005 70.6523 508.154 72.5107 508.451 73.7C508.749 74.8522 509.306 75.8186 510.124 76.5991C511.164 77.6027 513.097 78.3646 515.922 78.885V80H491.335V78.885C493.565 78.5876 495.145 78.1788 496.074 77.6584C497.041 77.1009 497.84 76.1717 498.472 74.8708C498.88 74.016 499.159 72.7337 499.308 71.0239C499.494 69.277 499.587 66.7868 499.587 63.5532V53.2391C499.587 48.8904 499.438 45.7125 499.141 43.7055C498.88 41.6612 498.36 40.0073 497.58 38.7436C496.762 37.4055 495.61 36.3648 494.123 35.6214C492.636 34.8409 490.964 34.4507 489.105 34.4507C486.987 34.4507 484.998 34.9524 483.14 35.956C481.281 36.9595 479.813 38.3161 478.735 40.0258C477.732 41.5497 477.007 43.3896 476.561 45.5453C476.152 47.6639 475.948 50.4143 475.948 53.7966V63.9992L476.004 68.1248C476.004 70.6523 476.152 72.5107 476.45 73.7C476.747 74.8522 477.323 75.8186 478.178 76.5991C479.219 77.6027 481.133 78.3646 483.92 78.885V80H459.334V78.885C461.564 78.5876 463.162 78.1788 464.128 77.6584C465.095 77.1009 465.875 76.1717 466.47 74.8708C466.879 74.016 467.158 72.7337 467.306 71.0239C467.492 69.277 467.585 66.7682 467.585 63.4974V49.7267C467.585 45.8984 467.492 43.2223 467.306 41.6984C467.12 40.1374 466.712 38.8736 466.08 37.9073C465.448 36.8666 464.686 36.1232 463.794 35.6772C462.902 35.194 461.62 34.8967 459.947 34.7852V33.6701L475.223 31.7746Z" fill="#5F7273"/>
<rect x="10" y="6" width="99" height="83" rx="10" fill="#5F7273"/>
<g clip-path="url(#clip1_139_62)">
<path d="M75.6141 63.8719C75.5644 63.8351 75.4766 63.8128 75.4753 63.817C75.3256 64.2826 74.9909 64.3546 74.5565 64.253C74.4289 64.2232 74.2888 64.248 74.1549 64.2404C73.7739 64.2187 73.479 63.9805 73.4161 63.6186C73.293 62.91 73.2395 62.1969 73.4021 61.4877C73.6012 60.6196 73.6099 59.7484 73.5981 58.86C73.5838 57.7811 73.717 56.699 73.8188 55.6212C73.8412 55.3834 73.7972 55.2338 73.6115 55.1024C73.3185 54.8951 73.2913 54.6429 73.4179 54.3154C73.5038 54.0929 73.5125 53.8331 73.5139 53.5898C73.5192 52.6593 73.4441 51.7238 73.5179 50.7993C73.6161 49.5694 73.674 48.3468 73.4727 47.1268C73.2535 45.7988 73.4096 44.488 73.5995 43.1752C73.6232 43.0109 73.6402 42.8416 73.6274 42.677C73.593 42.2333 73.2953 41.9561 72.8363 41.9485C72.1774 41.9376 71.5178 41.9303 70.8592 41.9457C70.1167 41.9631 69.8387 42.3594 69.8748 43.0747C69.9408 44.3841 69.9518 45.697 69.9557 47.0084C69.9601 48.4643 69.9387 49.9203 69.9134 51.3761C69.8984 52.234 69.8326 53.0914 69.8325 53.9491C69.8324 54.3285 69.9428 54.7073 69.9942 55.0876C70.0145 55.2373 70.0279 55.3916 70.0138 55.5411C69.9829 55.8692 69.8961 56.1955 69.8959 56.5226C69.8945 58.7313 69.9099 60.9399 69.9192 63.1486C69.9198 63.3037 69.9198 63.4591 69.9124 63.6141C69.8884 64.115 69.6977 64.3 69.1907 64.2993C65.9195 64.2944 62.6482 64.2799 59.377 64.2823C55.5456 64.2851 51.7141 64.2955 47.8828 64.317C46.8421 64.3229 46.8115 64.3254 46.8236 63.2747C46.8396 61.8908 46.7687 60.506 46.7783 59.1219C46.7915 57.213 46.8588 55.3045 46.8735 53.3957C46.8786 52.7297 46.7686 52.0634 46.7599 51.3967C46.7427 50.0743 46.7536 48.7515 46.7637 47.429C46.7746 46.0089 46.8071 44.5891 46.8123 43.1691C46.8157 42.2361 46.5176 41.9576 45.5676 41.9364C45.0433 41.9246 44.5193 41.8949 43.995 41.8933C43.4905 41.8917 43.319 42.0718 43.3113 42.5629C43.2838 44.3052 43.2483 46.0474 43.2309 47.7898C43.2068 50.1882 43.1702 52.587 43.1869 54.9854C43.2069 57.8491 43.2795 60.7124 43.3249 63.576C43.334 64.1551 43.1863 64.2941 42.5955 64.2944C36.9319 64.2972 31.2683 64.3001 25.6047 64.3002C24.5053 64.3003 23.8869 63.6032 24.1202 62.5498C24.575 60.4969 24.4115 58.4504 24.1898 56.3912C24.0894 55.4589 24.1179 54.5113 24.1234 53.5709C24.1261 53.1168 24.5129 52.7949 24.9852 52.7656C25.0942 52.7588 25.2106 52.7606 25.3097 52.7233C25.8292 52.5279 26.3163 52.646 26.7989 52.8473C27.2848 53.05 27.7358 52.9732 28.2455 52.8317C28.8518 52.6635 29.5161 52.6842 30.1568 52.6503C30.4837 52.633 30.8138 52.6815 31.1427 52.6893C31.9193 52.7076 32.1451 52.9062 32.1549 53.6768C32.1647 54.44 32.151 55.2046 32.1115 55.9667C32.0934 56.3178 32.171 56.4829 32.5638 56.5244C33.1927 56.5908 33.8134 56.7286 34.4395 56.8243C35.0578 56.9188 35.4504 56.7706 35.5716 56.3608C35.6369 56.1401 35.6176 55.89 35.6062 55.6546C35.5964 55.4536 35.542 55.2548 35.51 55.0547C35.4398 54.6157 35.541 54.4225 35.8991 54.2424C35.8991 53.9601 35.8411 53.6848 35.9154 53.4493C35.9898 53.2135 36.0043 53.0397 35.8243 52.8689C35.6054 52.6612 35.6292 52.4568 35.8131 52.2401C36.0516 51.9589 35.9892 51.6997 35.7501 51.4458C35.431 51.1069 35.421 50.9268 35.6814 50.5432C35.7546 50.4353 35.8407 50.3357 35.9417 50.2056C35.6026 49.8926 35.6829 49.5776 35.8747 49.2064C36.1773 48.6206 36.0659 48.256 35.6104 47.8112C35.5185 47.7215 35.4846 47.5351 35.4905 47.396C35.5194 46.7191 35.57 46.0431 35.6153 45.3669C35.6224 45.2608 35.6019 45.1201 35.6618 45.0557C35.9725 44.7218 35.8418 44.3824 35.7991 43.9917C35.721 43.2768 35.772 42.5446 35.8126 41.822C35.8485 41.1828 35.8309 40.5623 35.562 39.9658C35.521 39.8748 35.5086 39.7606 35.5184 39.6604C35.5902 38.928 35.6771 38.1971 35.7465 37.4645C35.7868 37.0379 35.8204 36.6093 35.8237 36.1814C35.8253 35.9746 35.7582 35.7653 35.7069 35.5609C35.6522 35.3428 35.5519 35.1328 35.5201 34.9126C35.4402 34.3594 35.707 34.0629 36.2731 34.0705C36.6381 34.0755 37.0035 34.1433 37.367 34.1317C38.0969 34.1083 38.8256 34.0159 39.555 34.0139C40.5909 34.011 41.6269 34.0703 42.6632 34.0901C43.1003 34.0984 43.5499 34.1335 43.9733 34.053C45.1675 33.8259 46.3575 33.9974 47.5494 34.0134C49.072 34.0339 50.5947 34.0608 52.1173 34.0552C52.4856 34.0538 52.7824 34.0714 52.9827 34.4235C53.1307 34.6837 53.3351 34.5134 53.4157 34.3809C53.6599 33.98 54.0237 34.0033 54.423 34.0014C55.3374 33.997 56.2521 33.9201 57.1654 33.9369C57.6152 33.9452 58.059 34.1246 58.5115 34.1729C58.8141 34.2052 59.1517 34.2089 59.4303 34.1095C60.0088 33.9031 60.561 33.7423 61.1475 34.0596C61.2151 34.0961 61.3199 34.0947 61.3997 34.0771C62.3646 33.8646 63.3447 34.1608 64.323 33.9604C64.8674 33.8488 65.4641 34.0072 66.0352 33.9877C66.7312 33.9639 67.409 34.0095 68.1022 34.1056C68.7774 34.1991 69.4839 34.068 70.1771 34.0465C71.6888 33.9995 73.2007 33.9467 74.7128 33.9343C74.8833 33.9329 75.0914 34.1493 75.22 34.3117C75.4893 34.652 75.5019 34.672 75.752 34.3378C75.9712 34.0449 76.2393 33.8708 76.6214 33.9227C77.2091 34.0024 77.81 34.0372 78.3794 34.1857C78.9787 34.342 79.54 34.2424 80.1118 34.1282C80.9975 33.9512 81.0026 33.9507 81.0331 34.8419C81.0597 35.6168 81.1042 36.3917 81.1024 37.1665C81.1019 37.3687 80.9468 37.5674 80.8851 37.774C80.8508 37.8888 80.8334 38.0233 80.8599 38.1374C80.9229 38.4089 81.0859 38.6732 81.0872 38.941C81.1029 41.9496 81.0956 44.9582 81.0944 47.9668C81.094 48.8845 81.1088 49.8026 81.0882 50.7199C81.0724 51.4217 81.0586 52.129 80.9603 52.8225C80.8047 53.9195 80.9882 54.9855 81.1475 56.0585C81.1896 56.3423 81.3732 56.4677 81.649 56.4852C82.452 56.536 83.2546 56.596 84.0584 56.6299C84.6003 56.6528 84.7447 56.4328 84.6203 55.9176C84.5599 55.6674 84.5269 55.3912 84.5692 55.141C84.6585 54.613 84.7795 54.0868 84.9358 53.574C85.1072 53.0115 85.3969 52.8508 85.9945 52.8434C87.7853 52.8211 89.5759 52.7892 91.3665 52.7555C91.5972 52.7512 91.827 52.6988 92.0576 52.696C92.4117 52.6918 92.6036 52.8631 92.6519 53.1999C92.6637 53.282 92.6589 53.3666 92.659 53.4501C92.6596 56.6736 92.66 59.8971 92.6603 63.1206C92.6603 63.24 92.6632 63.3596 92.6571 63.4787C92.6246 64.1156 92.424 64.2954 91.7777 64.3025C90.6319 64.3151 89.4854 64.371 88.3409 64.343C87.5153 64.3229 86.6913 64.2053 85.8686 64.1141C85.2745 64.0483 84.6965 64.0281 84.0926 64.1258C83.4667 64.227 82.7967 64.2518 82.1741 64.1483C80.9848 63.9504 79.82 64.0911 78.6413 64.1753C77.7671 64.2378 76.8856 64.2202 76.008 64.2029C75.8754 64.2003 75.7468 64.005 75.6141 63.8719Z" fill="white"/>
<path d="M27.1701 75.942C26.823 75.9795 26.5097 76.0225 26.1949 76.0405C25.9397 76.055 25.7032 76.0346 25.4941 75.8221C25.4125 75.7392 25.1271 75.7424 25.0126 75.8186C24.785 75.9701 24.5402 76.076 24.3525 75.8911C24.1959 75.7369 24.0885 75.4651 24.0856 75.2438C24.0746 74.4095 24.1234 73.5746 24.1338 72.7398C24.1413 72.1456 24.1088 71.5508 24.1241 70.957C24.1295 70.7481 24.2496 70.544 24.2714 70.3331C24.2988 70.0676 24.3408 69.7804 24.2689 69.5324C23.9926 68.5795 24.6226 67.6641 25.6309 67.6673C26.1758 67.669 26.7206 67.77 27.2649 67.8303C27.9709 67.9085 28.67 67.9356 29.3703 67.7511C29.5796 67.696 29.8255 67.7518 30.0511 67.7819C30.8219 67.8848 31.5884 68.0498 32.362 68.0907C32.871 68.1175 33.3899 67.9736 33.9037 67.9016C34.048 67.8814 34.1892 67.8248 34.3332 67.8194C35.8299 67.7631 37.3266 67.7009 38.824 67.6694C39.4084 67.6571 39.9962 67.6984 40.4853 68.0999C40.5472 68.1508 40.7557 68.1267 40.82 68.0633C41.1842 67.7041 41.6228 67.5945 42.1208 67.6055C43.145 67.628 44.1704 67.618 45.1934 67.6633C45.6143 67.6819 46.0277 67.8301 46.4494 67.8765C46.6477 67.8983 46.8842 67.866 47.0559 67.7736C47.2856 67.65 47.4516 67.6852 47.6134 67.8406C47.8468 68.0646 48.0677 68.3012 48.3646 68.6046C48.4273 67.8804 48.9339 67.9288 49.3845 67.8659C49.949 67.787 50.5127 67.596 51.0722 67.611C52.3844 67.6463 53.6936 67.7789 55.0046 67.8647C55.3939 67.8902 55.7848 67.8917 56.1751 67.9031C56.6466 67.9169 56.8432 68.1002 56.8438 68.565C56.847 71.2152 56.8503 73.8654 56.8364 76.5155C56.8351 76.7805 56.7408 77.0524 56.6495 77.3073C56.5794 77.5032 56.5491 77.6467 56.7084 77.8259C56.9641 78.1135 57.0366 79.2681 56.7907 79.5685C56.6572 79.7316 56.3929 79.8822 56.186 79.8842C53.8429 79.9078 51.4995 79.9051 49.1562 79.8994C48.7833 79.8985 48.5181 79.5754 48.638 79.2009C48.937 78.267 48.517 77.3444 48.6428 76.4137C48.683 76.1161 48.4158 76.0242 48.1128 76.0253C45.5254 76.0347 42.938 76.0331 40.3505 76.0336C38.2147 76.034 36.0788 76.0349 33.943 76.027C33.8098 76.0265 33.6231 75.9915 33.5542 75.9032C33.3583 75.6525 33.1936 75.7229 32.9653 75.8495C32.7858 75.949 32.5625 76.0271 32.36 76.0241C30.8114 76.001 29.2631 75.9548 27.7147 75.9188C27.5444 75.9148 27.3737 75.9303 27.1701 75.942Z" fill="white"/>
<path d="M92.6876 72.5377C92.6859 73.3016 92.6863 74.0297 92.6807 74.7577C92.6794 74.9242 92.6681 75.0919 92.6432 75.2565C92.5957 75.5704 92.5183 75.8974 92.1746 76.0089C91.7942 76.1323 91.4265 76.0448 91.1176 75.7781C91.0455 75.7159 90.9758 75.6509 90.8736 75.559C90.7681 75.9662 90.471 75.975 90.136 75.9751C83.5708 75.9771 77.0056 75.9849 70.4404 76.0004C70.13 76.0012 69.8841 75.9668 69.7565 75.5133C69.629 76.0502 69.2897 75.9881 68.9624 75.9803C68.1812 75.9616 68.0658 76.0748 68.0639 76.8273C68.062 77.5554 68.0689 78.2836 68.0581 79.0116C68.0491 79.6173 67.7738 79.8975 67.2077 79.8993C65.0252 79.9061 62.8427 79.9122 60.6602 79.9155C60.1106 79.9164 60.0514 79.8333 60.063 79.283C60.0795 78.4955 60.0664 77.7075 60.0777 76.9199C60.0974 75.5481 60.1517 74.1763 60.1438 72.8048C60.1361 71.4472 60.0804 70.0894 60.0222 68.7327C60.0038 68.304 60.1931 68.0043 60.5732 67.9115C61.0968 67.7836 61.6442 67.7151 62.1844 67.6939C63.3025 67.6499 64.4227 67.6554 65.5419 67.6375C66.066 67.6291 66.5903 67.5982 67.1138 67.6095C67.2856 67.6132 67.4827 67.6818 67.6204 67.783C68.0136 68.072 68.4252 68.0642 68.8729 67.9574C69.4267 67.8253 69.983 67.6841 70.547 67.6196C70.8619 67.5836 71.2115 67.6478 71.515 67.7519C71.9517 67.9016 72.3654 67.8655 72.8078 67.812C73.2092 67.7635 73.6245 67.8215 74.0335 67.8379C74.275 67.8477 74.5161 67.8812 74.7574 67.8811C75.6084 67.8808 76.4596 67.8777 77.3105 67.8622C78.3952 67.8423 79.4798 67.8114 80.5643 67.781C80.9664 67.7698 81.3688 67.7246 81.7695 67.7387C81.9512 67.7451 82.1405 67.8382 82.3055 67.9284C82.4964 68.0328 82.6388 68.0686 82.8255 67.9023C83.144 67.6188 83.5323 67.5564 83.9542 67.6423C84.2032 67.693 84.4581 67.7397 84.7109 67.7429C85.2224 67.7493 85.6745 67.8372 85.9741 68.3066C86.0164 68.3728 86.2484 68.4072 86.3217 68.357C86.8577 67.9906 87.4588 67.8892 88.0904 67.887C89.3699 67.8827 90.6499 67.9288 91.9111 67.6208C92.4103 67.4989 92.6788 67.7762 92.6825 68.3482C92.6908 69.6134 92.6866 70.8786 92.6874 72.1438C92.6875 72.2632 92.6876 72.3825 92.6876 72.5377Z" fill="white"/>
<path d="M50.6452 29.6155C50.6274 29.2849 50.5804 28.9869 50.5929 28.6914C50.6189 28.0748 50.6164 27.448 50.7375 26.847C50.8617 26.2307 50.807 25.6512 50.7052 25.046C50.6316 24.6083 50.6898 24.1495 50.689 23.7002C50.6886 23.5106 50.7172 23.3157 50.6821 23.1325C50.5171 22.2716 50.5482 21.9616 51.3073 21.4436C50.6302 20.9856 50.7341 20.2929 50.7206 19.6287C50.7058 18.9019 50.6636 18.1755 50.6563 17.4487C50.6535 17.1659 50.7099 16.8819 50.7459 16.5993C50.7922 16.2354 50.8451 15.8723 50.896 15.5027C51.1495 15.3662 51.4619 15.1702 51.798 15.0274C52.002 14.9407 52.2521 14.8752 52.4649 14.9069C53.0018 14.9868 53.5285 15.1315 54.0616 15.239C54.1541 15.2577 54.2938 15.2579 54.351 15.2045C54.6735 14.9029 55.0507 14.9302 55.4496 14.9656C56.3099 15.0419 57.1716 15.1215 58.0343 15.1459C58.4893 15.1587 58.9471 15.0277 59.4047 15.0191C59.7543 15.0126 60.1062 15.1367 60.456 15.1312C61.0848 15.1213 61.7279 15.1269 62.3372 14.9992C63.0974 14.8398 63.8368 14.8649 64.5886 14.9671C64.8899 15.008 65.1928 15.0413 65.4912 15.0974C65.8816 15.1709 66.0914 15.4299 66.0908 15.8044C66.0879 17.4754 66.068 19.1464 66.0533 20.8174C66.0528 20.8768 66.0397 20.9361 66.0383 20.9956C65.9878 23.1786 65.9245 25.3614 65.8963 27.5447C65.8879 28.1974 65.9971 28.8508 66.0176 29.5049C66.0377 30.1471 65.7829 30.3835 65.1197 30.4099C64.9612 30.4162 64.7947 30.3942 64.6459 30.4346C64.294 30.53 64.0068 30.5113 63.7892 30.1722C63.7505 30.1119 63.5622 30.1083 63.4549 30.1314C63.0691 30.2142 62.6878 30.4052 62.3059 30.4027C59.6829 30.3853 57.0604 30.3096 54.4374 30.2957C53.4892 30.2907 52.5404 30.4037 51.5919 30.4629C51.5797 30.4637 51.5676 30.4656 51.5555 30.4669C50.7117 30.5534 50.6007 30.454 50.6452 29.6155Z" fill="white"/>
</g>
</g>
<defs>
<clipPath id="clip0_139_62">
<rect width="561" height="95" fill="white"/>
</clipPath>
<clipPath id="clip1_139_62">
<rect width="75" height="73" fill="white" transform="translate(22 11)"/>
</clipPath>
</defs>
</svg>
