<svg width="40" height="40" viewBox="0 0 40 40" fill="none" xmlns="http://www.w3.org/2000/svg">
  <circle cx="20" cy="20" r="20" fill="#F9F9F9"/>
  <circle cx="20" cy="20" r="19" stroke="#E5E5E5" stroke-width="2"/>
  <path d="M14 17V23C14 24.1046 14.8954 25 16 25C17.1046 25 18 24.1046 18 23V17C18 15.8954 17.1046 15 16 15C14.8954 15 14 15.8954 14 17Z" fill="#1F2937"/>
  <path d="M22 17V23C22 24.1046 22.8954 25 24 25C25.1046 25 26 24.1046 26 23V17C26 15.8954 25.1046 15 24 15C22.8954 15 22 15.8954 22 17Z" fill="#1F2937"/>
  <path d="M20 11C16.6863 11 14 13.6863 14 17H15C15 14.2386 17.2386 12 20 12C22.7614 12 25 14.2386 25 17H26C26 13.6863 23.3137 11 20 11Z" fill="#1F2937"/>
</svg> 